<svg width="2306" height="671" viewBox="0 0 2306 671" fill="none" xmlns="http://www.w3.org/2000/svg">
<path d="M686.071 593.848C682.067 593.848 678.115 593.129 674.213 591.692C670.415 590.152 667.232 587.996 664.665 585.224L665.281 578.91V624.34H643.875V523.162H662.355L665.435 536.252L663.741 531.632C667.232 528.655 671.133 526.191 675.445 524.24C679.757 522.289 684.737 521.314 690.383 521.314C696.646 521.314 702.241 522.803 707.169 525.78C712.097 528.655 715.947 532.864 718.719 538.408C721.594 543.849 723.031 550.42 723.031 558.12C723.031 565.717 721.44 572.185 718.257 577.524C715.075 582.863 710.711 586.918 705.167 589.69C699.623 592.462 693.258 593.848 686.071 593.848ZM681.759 576.908C685.25 576.908 688.433 576.138 691.307 574.598C694.285 573.058 696.646 570.902 698.391 568.13C700.239 565.255 701.163 562.021 701.163 558.428C701.163 554.629 700.342 551.344 698.699 548.572C697.159 545.697 695.003 543.49 692.231 541.95C689.562 540.307 686.585 539.486 683.299 539.486C680.425 539.486 677.858 539.897 675.599 540.718C673.443 541.437 671.493 542.566 669.747 544.106C668.105 545.543 666.667 547.391 665.435 549.65V566.128C666.257 568.284 667.437 570.183 668.977 571.826C670.517 573.469 672.365 574.752 674.521 575.676C676.78 576.497 679.193 576.908 681.759 576.908ZM777.859 524.702L779.861 543.182L779.399 540.41C781.35 536.406 784.019 533.018 787.407 530.246C790.795 527.371 794.132 525.164 797.417 523.624C800.805 522.084 803.372 521.314 805.117 521.314L804.039 542.874C799.008 542.258 794.696 543.079 791.103 545.338C787.51 547.597 784.738 550.574 782.787 554.27C780.836 557.966 779.861 561.765 779.861 565.666V592H758.455V524.702H777.859ZM831.855 557.504C831.855 550.625 833.447 544.465 836.629 539.024C839.915 533.583 844.483 529.322 850.335 526.242C856.187 523.059 862.912 521.468 870.509 521.468C878.209 521.468 884.883 523.059 890.529 526.242C896.176 529.322 900.488 533.583 903.465 539.024C906.545 544.465 908.085 550.625 908.085 557.504C908.085 564.383 906.545 570.594 903.465 576.138C900.488 581.579 896.176 585.891 890.529 589.074C884.883 592.257 878.107 593.848 870.201 593.848C862.809 593.848 856.187 592.411 850.335 589.536C844.586 586.661 840.069 582.503 836.783 577.062C833.498 571.621 831.855 565.101 831.855 557.504ZM853.569 557.658C853.569 561.149 854.288 564.331 855.725 567.206C857.163 569.978 859.113 572.185 861.577 573.828C864.041 575.471 866.813 576.292 869.893 576.292C873.281 576.292 876.207 575.471 878.671 573.828C881.135 572.185 883.035 569.978 884.369 567.206C885.704 564.331 886.371 561.149 886.371 557.658C886.371 554.065 885.704 550.882 884.369 548.11C883.035 545.338 881.135 543.131 878.671 541.488C876.207 539.845 873.281 539.024 869.893 539.024C866.813 539.024 864.041 539.845 861.577 541.488C859.113 543.131 857.163 545.338 855.725 548.11C854.288 550.882 853.569 554.065 853.569 557.658ZM970.962 593.848C964.699 593.848 959.104 592.411 954.176 589.536C949.248 586.559 945.347 582.298 942.472 576.754C939.7 571.21 938.314 564.639 938.314 557.042C938.314 549.445 939.854 542.977 942.934 537.638C946.014 532.299 950.223 528.244 955.562 525.472C960.901 522.7 966.958 521.314 973.734 521.314C978.046 521.314 982.153 521.981 986.054 523.316C990.058 524.651 993.395 526.704 996.064 529.476V536.252V470.494H1017.47V592H995.91V578.91L997.604 583.53C994.113 586.405 990.212 588.869 985.9 590.922C981.588 592.873 976.609 593.848 970.962 593.848ZM978.046 575.676C980.921 575.676 983.436 575.317 985.592 574.598C987.851 573.777 989.801 572.647 991.444 571.21C993.189 569.67 994.678 567.771 995.91 565.512V549.034C995.089 546.775 993.805 544.876 992.06 543.336C990.417 541.693 988.364 540.461 985.9 539.64C983.539 538.716 980.921 538.254 978.046 538.254C974.863 538.254 971.886 539.075 969.114 540.718C966.445 542.258 964.289 544.414 962.646 547.186C961.003 549.958 960.182 553.141 960.182 556.734C960.182 560.327 961.003 563.561 962.646 566.436C964.289 569.311 966.445 571.569 969.114 573.212C971.886 574.855 974.863 575.676 978.046 575.676ZM1079.84 595.234C1073.79 595.234 1068.7 593.386 1064.6 589.69C1060.49 585.891 1058.33 581.015 1058.13 575.06V524.702H1079.69V567.052C1079.89 570.029 1080.66 572.442 1082 574.29C1083.33 576.035 1085.59 576.908 1088.78 576.908C1091.96 576.908 1094.68 575.83 1096.94 573.674C1099.3 571.518 1101.1 568.592 1102.33 564.896C1103.66 561.097 1104.33 556.837 1104.33 552.114V524.702H1125.89V592H1106.33L1104.64 579.68L1104.95 581.066C1103.41 583.838 1101.45 586.302 1099.09 588.458C1096.73 590.614 1093.91 592.257 1090.62 593.386C1087.44 594.618 1083.85 595.234 1079.84 595.234ZM1223.68 585.994C1220.7 588.355 1216.95 590.255 1212.44 591.692C1208.02 593.129 1203.66 593.848 1199.35 593.848C1191.65 593.848 1184.92 592.462 1179.17 589.69C1173.52 586.815 1169.11 582.76 1165.93 577.524C1162.85 572.185 1161.31 565.769 1161.31 558.274C1161.31 550.779 1163 544.414 1166.39 539.178C1169.78 533.839 1174.19 529.784 1179.63 527.012C1185.18 524.24 1190.98 522.854 1197.04 522.854C1203.09 522.854 1208.33 523.675 1212.74 525.318C1217.26 526.961 1221.11 529.117 1224.29 531.786L1213.82 545.646C1212.38 544.517 1210.38 543.387 1207.82 542.258C1205.35 541.026 1202.43 540.41 1199.04 540.41C1196.06 540.41 1193.34 541.18 1190.88 542.72C1188.41 544.26 1186.46 546.365 1185.02 549.034C1183.59 551.703 1182.87 554.783 1182.87 558.274C1182.87 561.559 1183.64 564.588 1185.18 567.36C1186.72 570.132 1188.82 572.339 1191.49 573.982C1194.26 575.522 1197.5 576.292 1201.19 576.292C1203.55 576.292 1205.71 575.984 1207.66 575.368C1209.71 574.649 1211.46 573.674 1212.9 572.442L1223.68 585.994ZM1265.03 495.134H1286.59V524.394H1302.91V541.18H1286.59V592H1265.03V541.18H1254.56V524.394H1265.03V495.134ZM1337.8 524.702H1359.36V592H1337.8V524.702ZM1337.34 500.832C1337.34 497.649 1338.57 495.031 1341.04 492.978C1343.6 490.925 1346.32 489.898 1349.2 489.898C1352.07 489.898 1354.69 490.925 1357.05 492.978C1359.52 495.031 1360.75 497.649 1360.75 500.832C1360.75 504.015 1359.52 506.633 1357.05 508.686C1354.69 510.637 1352.07 511.612 1349.2 511.612C1346.32 511.612 1343.6 510.637 1341.04 508.686C1338.57 506.633 1337.34 504.015 1337.34 500.832ZM1394.81 557.504C1394.81 550.625 1396.4 544.465 1399.58 539.024C1402.87 533.583 1407.44 529.322 1413.29 526.242C1419.14 523.059 1425.87 521.468 1433.46 521.468C1441.16 521.468 1447.84 523.059 1453.48 526.242C1459.13 529.322 1463.44 533.583 1466.42 539.024C1469.5 544.465 1471.04 550.625 1471.04 557.504C1471.04 564.383 1469.5 570.594 1466.42 576.138C1463.44 581.579 1459.13 585.891 1453.48 589.074C1447.84 592.257 1441.06 593.848 1433.16 593.848C1425.76 593.848 1419.14 592.411 1413.29 589.536C1407.54 586.661 1403.02 582.503 1399.74 577.062C1396.45 571.621 1394.81 565.101 1394.81 557.504ZM1416.52 557.658C1416.52 561.149 1417.24 564.331 1418.68 567.206C1420.12 569.978 1422.07 572.185 1424.53 573.828C1427 575.471 1429.77 576.292 1432.85 576.292C1436.24 576.292 1439.16 575.471 1441.63 573.828C1444.09 572.185 1445.99 569.978 1447.32 567.206C1448.66 564.331 1449.33 561.149 1449.33 557.658C1449.33 554.065 1448.66 550.882 1447.32 548.11C1445.99 545.338 1444.09 543.131 1441.63 541.488C1439.16 539.845 1436.24 539.024 1432.85 539.024C1429.77 539.024 1427 539.845 1424.53 541.488C1422.07 543.131 1420.12 545.338 1418.68 548.11C1417.24 550.882 1416.52 554.065 1416.52 557.658ZM1526.06 524.702L1527.76 536.714L1527.45 535.636C1529.81 531.427 1533.15 528.039 1537.46 525.472C1541.77 522.803 1547.06 521.468 1553.32 521.468C1559.69 521.468 1564.97 523.367 1569.18 527.166C1573.49 530.862 1575.7 535.687 1575.8 541.642V592H1554.24V549.65C1554.14 546.673 1553.32 544.311 1551.78 542.566C1550.34 540.718 1547.88 539.794 1544.39 539.794C1541.1 539.794 1538.23 540.872 1535.76 543.028C1533.3 545.184 1531.4 548.11 1530.07 551.806C1528.73 555.502 1528.06 559.763 1528.06 564.588V592H1506.5V524.702H1526.06ZM1638.29 593.386C1632.75 593.386 1627.56 592.411 1622.74 590.46C1618.01 588.509 1614.01 585.789 1610.72 582.298L1619.66 570.44C1622.94 573.417 1625.97 575.573 1628.74 576.908C1631.62 578.14 1634.18 578.756 1636.44 578.756C1638.19 578.756 1639.73 578.602 1641.06 578.294C1642.5 577.883 1643.63 577.319 1644.45 576.6C1645.27 575.779 1645.68 574.752 1645.68 573.52C1645.68 571.775 1644.96 570.389 1643.53 569.362C1642.19 568.335 1640.45 567.514 1638.29 566.898C1636.13 566.179 1633.82 565.461 1631.36 564.742C1625.2 562.791 1620.73 559.968 1617.96 556.272C1615.29 552.473 1613.96 548.367 1613.96 543.952C1613.96 540.564 1614.83 537.176 1616.58 533.788C1618.42 530.297 1621.3 527.423 1625.2 525.164C1629.2 522.803 1634.34 521.622 1640.6 521.622C1646.25 521.622 1651.02 522.187 1654.92 523.316C1658.82 524.445 1662.52 526.293 1666.01 528.86L1657.85 541.488C1655.9 539.948 1653.69 538.665 1651.23 537.638C1648.86 536.509 1646.66 535.893 1644.6 535.79C1642.76 535.687 1641.16 535.893 1639.83 536.406C1638.6 536.919 1637.62 537.587 1636.9 538.408C1636.18 539.229 1635.83 540.102 1635.83 541.026C1635.72 542.977 1636.44 544.517 1637.98 545.646C1639.62 546.775 1641.68 547.648 1644.14 548.264C1646.61 548.88 1649.02 549.599 1651.38 550.42C1654.66 551.447 1657.49 552.833 1659.85 554.578C1662.21 556.323 1664.01 558.428 1665.24 560.892C1666.57 563.253 1667.24 566.128 1667.24 569.516C1667.24 573.623 1666.16 577.524 1664.01 581.22C1661.95 584.813 1658.77 587.739 1654.46 589.998C1650.25 592.257 1644.86 593.386 1638.29 593.386Z" fill="black"/>
<rect x="160.194" y="177.584" width="121.072" height="121.072" transform="rotate(45 160.194 177.584)" fill="#8AA7DE"/>
<path d="M282 73V191H98V427H0V73H282Z" fill="#F465D7"/>
<path d="M617 288H338V73H617V288Z" fill="#8AA7DE"/>
<path d="M616.997 288C616.728 364.814 554.377 427 477.5 427C400.623 427 338.272 364.814 338.003 288H616.997Z" fill="#FAD65B"/>
<path d="M616.997 288C616.728 364.814 554.377 427 477.5 427C400.623 427 338.272 364.814 338.003 288H616.997Z" fill="#FAD65B"/>
<rect width="278" height="118" transform="matrix(1 0 0 -1 671 427)" fill="#F465D7"/>
<rect width="236" height="141" transform="matrix(-4.37114e-08 -1 -1 4.37114e-08 812 309)" fill="#8ADED2"/>
<rect width="278" height="118" transform="matrix(1 0 0 -1 1003 427)" fill="#FAD65B"/>
<rect width="236" height="141" transform="matrix(-4.37114e-08 -1 -1 4.37114e-08 1144 309)" fill="#E66560"/>
<path d="M1363.43 321.069C1318.16 238.716 1345.32 133.664 1424.29 86.1745C1503.25 38.6848 1604.17 66.7036 1650 148.723L1363.43 321.069Z" fill="#8ADED2"/>
<path d="M1597.57 178.994C1642.84 261.348 1615.68 366.402 1536.71 413.892C1457.75 461.382 1356.82 433.361 1310.99 351.34L1597.57 178.994Z" fill="#8AA7DE"/>
<rect x="1833.61" y="163.998" width="121.072" height="121.072" transform="rotate(45 1833.61 163.998)" fill="#8AA7DE"/>
<rect width="278" height="118" transform="matrix(1 0 0 -1 1695 190.998)" fill="#FAD65B"/>
<rect width="278" height="118" transform="matrix(1 0 0 -1 1695 426.998)" fill="#F465D7"/>
<rect x="1695" y="72.998" width="135" height="354" fill="#E66560"/>
<rect width="278" height="118" transform="matrix(1 0 0 -1 2028 190.998)" fill="#F465D7"/>
<rect x="2118" y="171.998" width="98" height="255" fill="#8ADED2"/>
</svg>
