<svg width="1281" height="1022" viewBox="0 0 1281 1022" fill="none" xmlns="http://www.w3.org/2000/svg">
<path d="M156.284 944.848C152.28 944.848 148.327 944.129 144.426 942.692C140.627 941.152 137.445 938.996 134.878 936.224L135.494 929.91V975.34H114.088V874.162H132.568L135.648 887.252L133.954 882.632C137.445 879.655 141.346 877.191 145.658 875.24C149.97 873.289 154.949 872.314 160.596 872.314C166.859 872.314 172.454 873.803 177.382 876.78C182.31 879.655 186.16 883.864 188.932 889.408C191.807 894.849 193.244 901.42 193.244 909.12C193.244 916.717 191.653 923.185 188.47 928.524C185.287 933.863 180.924 937.918 175.38 940.69C169.836 943.462 163.471 944.848 156.284 944.848ZM151.972 927.908C155.463 927.908 158.645 927.138 161.52 925.598C164.497 924.058 166.859 921.902 168.604 919.13C170.452 916.255 171.376 913.021 171.376 909.428C171.376 905.629 170.555 902.344 168.912 899.572C167.372 896.697 165.216 894.49 162.444 892.95C159.775 891.307 156.797 890.486 153.512 890.486C150.637 890.486 148.071 890.897 145.812 891.718C143.656 892.437 141.705 893.566 139.96 895.106C138.317 896.543 136.88 898.391 135.648 900.65V917.128C136.469 919.284 137.65 921.183 139.19 922.826C140.73 924.469 142.578 925.752 144.734 926.676C146.993 927.497 149.405 927.908 151.972 927.908ZM248.072 875.702L250.074 894.182L249.612 891.41C251.562 887.406 254.232 884.018 257.62 881.246C261.008 878.371 264.344 876.164 267.63 874.624C271.018 873.084 273.584 872.314 275.33 872.314L274.252 893.874C269.221 893.258 264.909 894.079 261.316 896.338C257.722 898.597 254.95 901.574 253 905.27C251.049 908.966 250.074 912.765 250.074 916.666V943H228.668V875.702H248.072ZM302.068 908.504C302.068 901.625 303.659 895.465 306.842 890.024C310.127 884.583 314.696 880.322 320.548 877.242C326.4 874.059 333.125 872.468 340.722 872.468C348.422 872.468 355.095 874.059 360.742 877.242C366.389 880.322 370.701 884.583 373.678 890.024C376.758 895.465 378.298 901.625 378.298 908.504C378.298 915.383 376.758 921.594 373.678 927.138C370.701 932.579 366.389 936.891 360.742 940.074C355.095 943.257 348.319 944.848 340.414 944.848C333.022 944.848 326.4 943.411 320.548 940.536C314.799 937.661 310.281 933.503 306.996 928.062C303.711 922.621 302.068 916.101 302.068 908.504ZM323.782 908.658C323.782 912.149 324.501 915.331 325.938 918.206C327.375 920.978 329.326 923.185 331.79 924.828C334.254 926.471 337.026 927.292 340.106 927.292C343.494 927.292 346.42 926.471 348.884 924.828C351.348 923.185 353.247 920.978 354.582 918.206C355.917 915.331 356.584 912.149 356.584 908.658C356.584 905.065 355.917 901.882 354.582 899.11C353.247 896.338 351.348 894.131 348.884 892.488C346.42 890.845 343.494 890.024 340.106 890.024C337.026 890.024 334.254 890.845 331.79 892.488C329.326 894.131 327.375 896.338 325.938 899.11C324.501 901.882 323.782 905.065 323.782 908.658ZM441.174 944.848C434.912 944.848 429.316 943.411 424.388 940.536C419.46 937.559 415.559 933.298 412.684 927.754C409.912 922.21 408.526 915.639 408.526 908.042C408.526 900.445 410.066 893.977 413.146 888.638C416.226 883.299 420.436 879.244 425.774 876.472C431.113 873.7 437.17 872.314 443.946 872.314C448.258 872.314 452.365 872.981 456.266 874.316C460.27 875.651 463.607 877.704 466.276 880.476V887.252V821.494H487.682V943H466.122V929.91L467.816 934.53C464.326 937.405 460.424 939.869 456.112 941.922C451.8 943.873 446.821 944.848 441.174 944.848ZM448.258 926.676C451.133 926.676 453.648 926.317 455.804 925.598C458.063 924.777 460.014 923.647 461.656 922.21C463.402 920.67 464.89 918.771 466.122 916.512V900.034C465.301 897.775 464.018 895.876 462.272 894.336C460.63 892.693 458.576 891.461 456.112 890.64C453.751 889.716 451.133 889.254 448.258 889.254C445.076 889.254 442.098 890.075 439.326 891.718C436.657 893.258 434.501 895.414 432.858 898.186C431.216 900.958 430.394 904.141 430.394 907.734C430.394 911.327 431.216 914.561 432.858 917.436C434.501 920.311 436.657 922.569 439.326 924.212C442.098 925.855 445.076 926.676 448.258 926.676ZM550.056 946.234C543.999 946.234 538.917 944.386 534.81 940.69C530.703 936.891 528.547 932.015 528.342 926.06V875.702H549.902V918.052C550.107 921.029 550.877 923.442 552.212 925.29C553.547 927.035 555.805 927.908 558.988 927.908C562.171 927.908 564.891 926.83 567.15 924.674C569.511 922.518 571.308 919.592 572.54 915.896C573.875 912.097 574.542 907.837 574.542 903.114V875.702H596.102V943H576.544L574.85 930.68L575.158 932.066C573.618 934.838 571.667 937.302 569.306 939.458C566.945 941.614 564.121 943.257 560.836 944.386C557.653 945.618 554.06 946.234 550.056 946.234ZM693.89 936.994C690.912 939.355 687.165 941.255 682.648 942.692C678.233 944.129 673.87 944.848 669.558 944.848C661.858 944.848 655.133 943.462 649.384 940.69C643.737 937.815 639.322 933.76 636.14 928.524C633.06 923.185 631.52 916.769 631.52 909.274C631.52 901.779 633.214 895.414 636.602 890.178C639.99 884.839 644.404 880.784 649.846 878.012C655.39 875.24 661.19 873.854 667.248 873.854C673.305 873.854 678.541 874.675 682.956 876.318C687.473 877.961 691.323 880.117 694.506 882.786L684.034 896.646C682.596 895.517 680.594 894.387 678.028 893.258C675.564 892.026 672.638 891.41 669.25 891.41C666.272 891.41 663.552 892.18 661.088 893.72C658.624 895.26 656.673 897.365 655.236 900.034C653.798 902.703 653.08 905.783 653.08 909.274C653.08 912.559 653.85 915.588 655.39 918.36C656.93 921.132 659.034 923.339 661.704 924.982C664.476 926.522 667.71 927.292 671.406 927.292C673.767 927.292 675.923 926.984 677.874 926.368C679.927 925.649 681.672 924.674 683.11 923.442L693.89 936.994ZM735.241 846.134H756.801V875.394H773.125V892.18H756.801V943H735.241V892.18H724.769V875.394H735.241V846.134ZM808.014 875.702H829.574V943H808.014V875.702ZM807.552 851.832C807.552 848.649 808.784 846.031 811.248 843.978C813.815 841.925 816.536 840.898 819.41 840.898C822.285 840.898 824.903 841.925 827.264 843.978C829.728 846.031 830.96 848.649 830.96 851.832C830.96 855.015 829.728 857.633 827.264 859.686C824.903 861.637 822.285 862.612 819.41 862.612C816.536 862.612 813.815 861.637 811.248 859.686C808.784 857.633 807.552 855.015 807.552 851.832ZM865.022 908.504C865.022 901.625 866.613 895.465 869.796 890.024C873.081 884.583 877.65 880.322 883.502 877.242C889.354 874.059 896.079 872.468 903.676 872.468C911.376 872.468 918.049 874.059 923.696 877.242C929.343 880.322 933.655 884.583 936.632 890.024C939.712 895.465 941.252 901.625 941.252 908.504C941.252 915.383 939.712 921.594 936.632 927.138C933.655 932.579 929.343 936.891 923.696 940.074C918.049 943.257 911.273 944.848 903.368 944.848C895.976 944.848 889.354 943.411 883.502 940.536C877.753 937.661 873.235 933.503 869.95 928.062C866.665 922.621 865.022 916.101 865.022 908.504ZM886.736 908.658C886.736 912.149 887.455 915.331 888.892 918.206C890.329 920.978 892.28 923.185 894.744 924.828C897.208 926.471 899.98 927.292 903.06 927.292C906.448 927.292 909.374 926.471 911.838 924.828C914.302 923.185 916.201 920.978 917.536 918.206C918.871 915.331 919.538 912.149 919.538 908.658C919.538 905.065 918.871 901.882 917.536 899.11C916.201 896.338 914.302 894.131 911.838 892.488C909.374 890.845 906.448 890.024 903.06 890.024C899.98 890.024 897.208 890.845 894.744 892.488C892.28 894.131 890.329 896.338 888.892 899.11C887.455 901.882 886.736 905.065 886.736 908.658ZM996.275 875.702L997.969 887.714L997.661 886.636C1000.02 882.427 1003.36 879.039 1007.67 876.472C1011.98 873.803 1017.27 872.468 1023.53 872.468C1029.9 872.468 1035.19 874.367 1039.39 878.166C1043.71 881.862 1045.91 886.687 1046.02 892.642V943H1024.46V900.65C1024.35 897.673 1023.53 895.311 1021.99 893.566C1020.56 891.718 1018.09 890.794 1014.6 890.794C1011.32 890.794 1008.44 891.872 1005.98 894.028C1003.51 896.184 1001.61 899.11 1000.28 902.806C998.944 906.502 998.277 910.763 998.277 915.588V943H976.717V875.702H996.275ZM1108.5 944.386C1102.96 944.386 1097.77 943.411 1092.95 941.46C1088.23 939.509 1084.22 936.789 1080.94 933.298L1089.87 921.44C1093.15 924.417 1096.18 926.573 1098.95 927.908C1101.83 929.14 1104.4 929.756 1106.65 929.756C1108.4 929.756 1109.94 929.602 1111.27 929.294C1112.71 928.883 1113.84 928.319 1114.66 927.6C1115.48 926.779 1115.89 925.752 1115.89 924.52C1115.89 922.775 1115.18 921.389 1113.74 920.362C1112.4 919.335 1110.66 918.514 1108.5 917.898C1106.35 917.179 1104.04 916.461 1101.57 915.742C1095.41 913.791 1090.95 910.968 1088.17 907.272C1085.5 903.473 1084.17 899.367 1084.17 894.952C1084.17 891.564 1085.04 888.176 1086.79 884.788C1088.64 881.297 1091.51 878.423 1095.41 876.164C1099.42 873.803 1104.55 872.622 1110.81 872.622C1116.46 872.622 1121.23 873.187 1125.13 874.316C1129.04 875.445 1132.73 877.293 1136.22 879.86L1128.06 892.488C1126.11 890.948 1123.9 889.665 1121.44 888.638C1119.08 887.509 1116.87 886.893 1114.82 886.79C1112.97 886.687 1111.38 886.893 1110.04 887.406C1108.81 887.919 1107.83 888.587 1107.12 889.408C1106.4 890.229 1106.04 891.102 1106.04 892.026C1105.94 893.977 1106.65 895.517 1108.19 896.646C1109.84 897.775 1111.89 898.648 1114.35 899.264C1116.82 899.88 1119.23 900.599 1121.59 901.42C1124.88 902.447 1127.7 903.833 1130.06 905.578C1132.42 907.323 1134.22 909.428 1135.45 911.892C1136.79 914.253 1137.45 917.128 1137.45 920.516C1137.45 924.623 1136.38 928.524 1134.22 932.22C1132.17 935.813 1128.98 938.739 1124.67 940.998C1120.46 943.257 1115.07 944.386 1108.5 944.386Z" fill="black"/>
<rect x="160.194" y="104.584" width="121.072" height="121.072" transform="rotate(45 160.194 104.584)" fill="#8EA8DC"/>
<path d="M282 0V118H98V354H0V0H282Z" fill="#D97CCA"/>
<path d="M617 215H338V0H617V215Z" fill="#8EA8DC"/>
<path d="M616.997 215C616.728 291.814 554.377 354 477.5 354C400.623 354 338.272 291.814 338.003 215H616.997Z" fill="#E0C15F"/>
<path d="M616.997 215C616.728 291.814 554.377 354 477.5 354C400.623 354 338.272 291.814 338.003 215H616.997Z" fill="#E0C15F"/>
<rect width="278" height="118" transform="matrix(1 0 0 -1 671 354)" fill="#D97CCA"/>
<rect width="236" height="141" transform="matrix(-4.37114e-08 -1 -1 4.37114e-08 812 236)" fill="#85C8BE"/>
<rect width="278" height="118" transform="matrix(1 0 0 -1 1003 354)" fill="#E0C15F"/>
<rect width="236" height="141" transform="matrix(-4.37114e-08 -1 -1 4.37114e-08 1144 236)" fill="#D77350"/>
<path d="M165.43 658.071C120.156 575.717 147.322 470.666 226.287 423.176C305.251 375.687 406.174 403.706 452.005 485.725L165.43 658.071Z" fill="#85C8BE"/>
<path d="M399.567 515.996C444.844 598.35 417.679 703.404 338.713 750.894C259.747 798.384 158.824 770.363 112.994 688.342L399.567 515.996Z" fill="#8EA8DC"/>
<rect x="675.611" y="501" width="121.072" height="121.072" transform="rotate(45 675.611 501)" fill="#8EA8DC"/>
<rect width="278" height="118" transform="matrix(1 0 0 -1 497 528)" fill="#E0C15F"/>
<rect width="278" height="118" transform="matrix(1 0 0 -1 497 764)" fill="#D97CCA"/>
<rect x="497" y="410" width="135" height="354" fill="#D77350"/>
<rect width="278" height="118" transform="matrix(1 0 0 -1 830 528)" fill="#D97CCA"/>
<rect x="920" y="509" width="98" height="255" fill="#85C8BE"/>
</svg>
