<svg width="2306" height="695" viewBox="0 0 2306 695" fill="none" xmlns="http://www.w3.org/2000/svg">
<rect x="162.611" y="182.071" width="111.072" height="111.072" transform="rotate(45 162.611 182.071)" fill="white" stroke="black" stroke-width="10"/>
<path d="M282 71V189H98V425H0V71H282Z" fill="black"/>
<mask id="path-3-inside-1_428_1058" fill="white">
<path d="M617 286H338V71H617V286Z"/>
</mask>
<path d="M617 286V296H627V286H617ZM338 286H328V296H338V286ZM338 71V61H328V71H338ZM617 71H627V61H617V71ZM617 286V276H338V286V296H617V286ZM338 286H348V71H338H328V286H338ZM338 71V81H617V71V61H338V71ZM617 71H607V286H617H627V71H617Z" fill="black" mask="url(#path-3-inside-1_428_1058)"/>
<path d="M616.997 286C616.728 362.814 554.377 425 477.5 425C400.623 425 338.272 362.814 338.003 286H616.997Z" fill="black"/>
<rect x="5" y="-5" width="268" height="108" transform="matrix(1 0 0 -1 671 415)" fill="white" stroke="black" stroke-width="10"/>
<rect width="236" height="141" transform="matrix(-4.37114e-08 -1 -1 4.37114e-08 812 307)" fill="black"/>
<rect x="-5" y="-5" width="245" height="131" transform="matrix(-4.37114e-08 -1 -1 4.37114e-08 1134 316)" fill="white" stroke="black" stroke-width="10"/>
<rect width="278" height="118" transform="matrix(1 0 0 -1 1003 425)" fill="black"/>
<path d="M675.071 617.848C671.067 617.848 667.115 617.129 663.213 615.692C659.415 614.152 656.232 611.996 653.665 609.224L654.281 602.91V648.34H632.875V547.162H651.355L654.435 560.252L652.741 555.632C656.232 552.655 660.133 550.191 664.445 548.24C668.757 546.289 673.737 545.314 679.383 545.314C685.646 545.314 691.241 546.803 696.169 549.78C701.097 552.655 704.947 556.864 707.719 562.408C710.594 567.849 712.031 574.42 712.031 582.12C712.031 589.717 710.44 596.185 707.257 601.524C704.075 606.863 699.711 610.918 694.167 613.69C688.623 616.462 682.258 617.848 675.071 617.848ZM670.759 600.908C674.25 600.908 677.433 600.138 680.307 598.598C683.285 597.058 685.646 594.902 687.391 592.13C689.239 589.255 690.163 586.021 690.163 582.428C690.163 578.629 689.342 575.344 687.699 572.572C686.159 569.697 684.003 567.49 681.231 565.95C678.562 564.307 675.585 563.486 672.299 563.486C669.425 563.486 666.858 563.897 664.599 564.718C662.443 565.437 660.493 566.566 658.747 568.106C657.105 569.543 655.667 571.391 654.435 573.65V590.128C655.257 592.284 656.437 594.183 657.977 595.826C659.517 597.469 661.365 598.752 663.521 599.676C665.78 600.497 668.193 600.908 670.759 600.908ZM766.859 548.702L768.861 567.182L768.399 564.41C770.35 560.406 773.019 557.018 776.407 554.246C779.795 551.371 783.132 549.164 786.417 547.624C789.805 546.084 792.372 545.314 794.117 545.314L793.039 566.874C788.008 566.258 783.696 567.079 780.103 569.338C776.51 571.597 773.738 574.574 771.787 578.27C769.836 581.966 768.861 585.765 768.861 589.666V616H747.455V548.702H766.859ZM820.855 581.504C820.855 574.625 822.447 568.465 825.629 563.024C828.915 557.583 833.483 553.322 839.335 550.242C845.187 547.059 851.912 545.468 859.509 545.468C867.209 545.468 873.883 547.059 879.529 550.242C885.176 553.322 889.488 557.583 892.465 563.024C895.545 568.465 897.085 574.625 897.085 581.504C897.085 588.383 895.545 594.594 892.465 600.138C889.488 605.579 885.176 609.891 879.529 613.074C873.883 616.257 867.107 617.848 859.201 617.848C851.809 617.848 845.187 616.411 839.335 613.536C833.586 610.661 829.069 606.503 825.783 601.062C822.498 595.621 820.855 589.101 820.855 581.504ZM842.569 581.658C842.569 585.149 843.288 588.331 844.725 591.206C846.163 593.978 848.113 596.185 850.577 597.828C853.041 599.471 855.813 600.292 858.893 600.292C862.281 600.292 865.207 599.471 867.671 597.828C870.135 596.185 872.035 593.978 873.369 591.206C874.704 588.331 875.371 585.149 875.371 581.658C875.371 578.065 874.704 574.882 873.369 572.11C872.035 569.338 870.135 567.131 867.671 565.488C865.207 563.845 862.281 563.024 858.893 563.024C855.813 563.024 853.041 563.845 850.577 565.488C848.113 567.131 846.163 569.338 844.725 572.11C843.288 574.882 842.569 578.065 842.569 581.658ZM959.962 617.848C953.699 617.848 948.104 616.411 943.176 613.536C938.248 610.559 934.347 606.298 931.472 600.754C928.7 595.21 927.314 588.639 927.314 581.042C927.314 573.445 928.854 566.977 931.934 561.638C935.014 556.299 939.223 552.244 944.562 549.472C949.901 546.7 955.958 545.314 962.734 545.314C967.046 545.314 971.153 545.981 975.054 547.316C979.058 548.651 982.395 550.704 985.064 553.476V560.252V494.494H1006.47V616H984.91V602.91L986.604 607.53C983.113 610.405 979.212 612.869 974.9 614.922C970.588 616.873 965.609 617.848 959.962 617.848ZM967.046 599.676C969.921 599.676 972.436 599.317 974.592 598.598C976.851 597.777 978.801 596.647 980.444 595.21C982.189 593.67 983.678 591.771 984.91 589.512V573.034C984.089 570.775 982.805 568.876 981.06 567.336C979.417 565.693 977.364 564.461 974.9 563.64C972.539 562.716 969.921 562.254 967.046 562.254C963.863 562.254 960.886 563.075 958.114 564.718C955.445 566.258 953.289 568.414 951.646 571.186C950.003 573.958 949.182 577.141 949.182 580.734C949.182 584.327 950.003 587.561 951.646 590.436C953.289 593.311 955.445 595.569 958.114 597.212C960.886 598.855 963.863 599.676 967.046 599.676ZM1068.84 619.234C1062.79 619.234 1057.7 617.386 1053.6 613.69C1049.49 609.891 1047.33 605.015 1047.13 599.06V548.702H1068.69V591.052C1068.89 594.029 1069.66 596.442 1071 598.29C1072.33 600.035 1074.59 600.908 1077.78 600.908C1080.96 600.908 1083.68 599.83 1085.94 597.674C1088.3 595.518 1090.1 592.592 1091.33 588.896C1092.66 585.097 1093.33 580.837 1093.33 576.114V548.702H1114.89V616H1095.33L1093.64 603.68L1093.95 605.066C1092.41 607.838 1090.45 610.302 1088.09 612.458C1085.73 614.614 1082.91 616.257 1079.62 617.386C1076.44 618.618 1072.85 619.234 1068.84 619.234ZM1212.68 609.994C1209.7 612.355 1205.95 614.255 1201.44 615.692C1197.02 617.129 1192.66 617.848 1188.35 617.848C1180.65 617.848 1173.92 616.462 1168.17 613.69C1162.52 610.815 1158.11 606.76 1154.93 601.524C1151.85 596.185 1150.31 589.769 1150.31 582.274C1150.31 574.779 1152 568.414 1155.39 563.178C1158.78 557.839 1163.19 553.784 1168.63 551.012C1174.18 548.24 1179.98 546.854 1186.04 546.854C1192.09 546.854 1197.33 547.675 1201.74 549.318C1206.26 550.961 1210.11 553.117 1213.29 555.786L1202.82 569.646C1201.38 568.517 1199.38 567.387 1196.82 566.258C1194.35 565.026 1191.43 564.41 1188.04 564.41C1185.06 564.41 1182.34 565.18 1179.88 566.72C1177.41 568.26 1175.46 570.365 1174.02 573.034C1172.59 575.703 1171.87 578.783 1171.87 582.274C1171.87 585.559 1172.64 588.588 1174.18 591.36C1175.72 594.132 1177.82 596.339 1180.49 597.982C1183.26 599.522 1186.5 600.292 1190.19 600.292C1192.55 600.292 1194.71 599.984 1196.66 599.368C1198.71 598.649 1200.46 597.674 1201.9 596.442L1212.68 609.994ZM1254.03 519.134H1275.59V548.394H1291.91V565.18H1275.59V616H1254.03V565.18H1243.56V548.394H1254.03V519.134ZM1326.8 548.702H1348.36V616H1326.8V548.702ZM1326.34 524.832C1326.34 521.649 1327.57 519.031 1330.04 516.978C1332.6 514.925 1335.32 513.898 1338.2 513.898C1341.07 513.898 1343.69 514.925 1346.05 516.978C1348.52 519.031 1349.75 521.649 1349.75 524.832C1349.75 528.015 1348.52 530.633 1346.05 532.686C1343.69 534.637 1341.07 535.612 1338.2 535.612C1335.32 535.612 1332.6 534.637 1330.04 532.686C1327.57 530.633 1326.34 528.015 1326.34 524.832ZM1383.81 581.504C1383.81 574.625 1385.4 568.465 1388.58 563.024C1391.87 557.583 1396.44 553.322 1402.29 550.242C1408.14 547.059 1414.87 545.468 1422.46 545.468C1430.16 545.468 1436.84 547.059 1442.48 550.242C1448.13 553.322 1452.44 557.583 1455.42 563.024C1458.5 568.465 1460.04 574.625 1460.04 581.504C1460.04 588.383 1458.5 594.594 1455.42 600.138C1452.44 605.579 1448.13 609.891 1442.48 613.074C1436.84 616.257 1430.06 617.848 1422.16 617.848C1414.76 617.848 1408.14 616.411 1402.29 613.536C1396.54 610.661 1392.02 606.503 1388.74 601.062C1385.45 595.621 1383.81 589.101 1383.81 581.504ZM1405.52 581.658C1405.52 585.149 1406.24 588.331 1407.68 591.206C1409.12 593.978 1411.07 596.185 1413.53 597.828C1416 599.471 1418.77 600.292 1421.85 600.292C1425.24 600.292 1428.16 599.471 1430.63 597.828C1433.09 596.185 1434.99 593.978 1436.32 591.206C1437.66 588.331 1438.33 585.149 1438.33 581.658C1438.33 578.065 1437.66 574.882 1436.32 572.11C1434.99 569.338 1433.09 567.131 1430.63 565.488C1428.16 563.845 1425.24 563.024 1421.85 563.024C1418.77 563.024 1416 563.845 1413.53 565.488C1411.07 567.131 1409.12 569.338 1407.68 572.11C1406.24 574.882 1405.52 578.065 1405.52 581.658ZM1515.06 548.702L1516.76 560.714L1516.45 559.636C1518.81 555.427 1522.15 552.039 1526.46 549.472C1530.77 546.803 1536.06 545.468 1542.32 545.468C1548.69 545.468 1553.97 547.367 1558.18 551.166C1562.49 554.862 1564.7 559.687 1564.8 565.642V616H1543.24V573.65C1543.14 570.673 1542.32 568.311 1540.78 566.566C1539.34 564.718 1536.88 563.794 1533.39 563.794C1530.1 563.794 1527.23 564.872 1524.76 567.028C1522.3 569.184 1520.4 572.11 1519.07 575.806C1517.73 579.502 1517.06 583.763 1517.06 588.588V616H1495.5V548.702H1515.06ZM1627.29 617.386C1621.75 617.386 1616.56 616.411 1611.74 614.46C1607.01 612.509 1603.01 609.789 1599.72 606.298L1608.66 594.44C1611.94 597.417 1614.97 599.573 1617.74 600.908C1620.62 602.14 1623.18 602.756 1625.44 602.756C1627.19 602.756 1628.73 602.602 1630.06 602.294C1631.5 601.883 1632.63 601.319 1633.45 600.6C1634.27 599.779 1634.68 598.752 1634.68 597.52C1634.68 595.775 1633.96 594.389 1632.53 593.362C1631.19 592.335 1629.45 591.514 1627.29 590.898C1625.13 590.179 1622.82 589.461 1620.36 588.742C1614.2 586.791 1609.73 583.968 1606.96 580.272C1604.29 576.473 1602.96 572.367 1602.96 567.952C1602.96 564.564 1603.83 561.176 1605.58 557.788C1607.42 554.297 1610.3 551.423 1614.2 549.164C1618.2 546.803 1623.34 545.622 1629.6 545.622C1635.25 545.622 1640.02 546.187 1643.92 547.316C1647.82 548.445 1651.52 550.293 1655.01 552.86L1646.85 565.488C1644.9 563.948 1642.69 562.665 1640.23 561.638C1637.86 560.509 1635.66 559.893 1633.6 559.79C1631.76 559.687 1630.16 559.893 1628.83 560.406C1627.6 560.919 1626.62 561.587 1625.9 562.408C1625.18 563.229 1624.83 564.102 1624.83 565.026C1624.72 566.977 1625.44 568.517 1626.98 569.646C1628.62 570.775 1630.68 571.648 1633.14 572.264C1635.61 572.88 1638.02 573.599 1640.38 574.42C1643.66 575.447 1646.49 576.833 1648.85 578.578C1651.21 580.323 1653.01 582.428 1654.24 584.892C1655.57 587.253 1656.24 590.128 1656.24 593.516C1656.24 597.623 1655.16 601.524 1653.01 605.22C1650.95 608.813 1647.77 611.739 1643.46 613.998C1639.25 616.257 1633.86 617.386 1627.29 617.386Z" fill="black"/>
<path d="M1363.43 321.069C1318.16 238.716 1345.32 133.664 1424.29 86.1745C1503.25 38.6848 1604.17 66.7036 1650 148.723L1363.43 321.069Z" fill="black"/>
<mask id="path-12-inside-2_428_1058" fill="white">
<path d="M1597.57 178.994C1642.84 261.348 1615.68 366.402 1536.71 413.892C1457.75 461.382 1356.82 433.361 1310.99 351.34L1597.57 178.994Z"/>
</mask>
<path d="M1597.57 178.994C1642.84 261.348 1615.68 366.402 1536.71 413.892C1457.75 461.382 1356.82 433.361 1310.99 351.34L1597.57 178.994Z" fill="white"/>
<path d="M1597.57 178.994L1606.15 173.87L1601.32 165.076L1592.72 170.247L1597.57 178.994ZM1536.71 413.892L1541.56 422.638L1541.56 422.638L1536.71 413.892ZM1310.99 351.34L1306.15 342.593L1297.55 347.765L1302.44 356.524L1310.99 351.34ZM1597.57 178.994L1588.98 184.117C1631.7 261.814 1605.94 360.594 1531.86 405.146L1536.71 413.892L1541.56 422.638C1625.41 372.209 1653.99 260.882 1606.15 173.87L1597.57 178.994ZM1536.71 413.892L1531.86 405.146C1457.79 449.697 1362.78 423.538 1319.55 346.156L1310.99 351.34L1302.44 356.524C1350.86 443.184 1457.71 473.067 1541.56 422.638L1536.71 413.892ZM1310.99 351.34L1315.84 360.086L1602.41 187.74L1597.57 178.994L1592.72 170.247L1306.15 342.593L1310.99 351.34Z" fill="black" mask="url(#path-12-inside-2_428_1058)"/>
<rect x="1833.61" y="163.998" width="121.072" height="121.072" transform="rotate(45 1833.61 163.998)" fill="black"/>
<rect x="5" y="-5" width="268" height="108" transform="matrix(1 0 0 -1 1695 180.998)" fill="white" stroke="black" stroke-width="10"/>
<rect x="5" y="-5" width="268" height="108" transform="matrix(1 0 0 -1 1695 416.998)" fill="white" stroke="black" stroke-width="10"/>
<rect x="1695" y="72.998" width="98" height="354" fill="black"/>
<rect width="278" height="118" transform="matrix(1 0 0 -1 2028 190.998)" fill="black"/>
<rect x="2123" y="176.998" width="88" height="245" fill="white" stroke="black" stroke-width="10"/>
</svg>
