<svg width="1281" height="1015" viewBox="0 0 1281 1015" fill="none" xmlns="http://www.w3.org/2000/svg">
<rect x="162.611" y="111.071" width="111.072" height="111.072" transform="rotate(45 162.611 111.071)" fill="white" stroke="black" stroke-width="10"/>
<path d="M282 0V118H98V354H0V0H282Z" fill="black"/>
<mask id="path-3-inside-1_428_976" fill="white">
<path d="M617 215H338V0H617V215Z"/>
</mask>
<path d="M617 215V225H627V215H617ZM338 215H328V225H338V215ZM338 0V-10H328V0H338ZM617 0H627V-10H617V0ZM617 215V205H338V215V225H617V215ZM338 215H348V0H338H328V215H338ZM338 0V10H617V0V-10H338V0ZM617 0H607V215H617H627V0H617Z" fill="black" mask="url(#path-3-inside-1_428_976)"/>
<path d="M616.997 215C616.728 291.814 554.377 354 477.5 354C400.623 354 338.272 291.814 338.003 215H616.997Z" fill="black"/>
<rect x="5" y="-5" width="268" height="108" transform="matrix(1 0 0 -1 671 344)" fill="white" stroke="black" stroke-width="10"/>
<rect width="236" height="141" transform="matrix(-4.37114e-08 -1 -1 4.37114e-08 812 236)" fill="black"/>
<rect x="-5" y="-5" width="245" height="131" transform="matrix(-4.37114e-08 -1 -1 4.37114e-08 1134 245)" fill="white" stroke="black" stroke-width="10"/>
<rect width="278" height="118" transform="matrix(1 0 0 -1 1003 354)" fill="black"/>
<path d="M165.43 658.071C120.156 575.717 147.322 470.666 226.287 423.176C305.251 375.687 406.174 403.706 452.005 485.725L165.43 658.071Z" fill="black"/>
<mask id="path-11-inside-2_428_976" fill="white">
<path d="M399.567 515.996C444.844 598.35 417.679 703.404 338.713 750.894C259.747 798.384 158.824 770.363 112.994 688.342L399.567 515.996Z"/>
</mask>
<path d="M399.567 515.996C444.844 598.35 417.679 703.404 338.713 750.894C259.747 798.384 158.824 770.363 112.994 688.342L399.567 515.996Z" fill="white"/>
<path d="M399.567 515.996L408.154 510.872L403.319 502.078L394.72 507.249L399.567 515.996ZM338.713 750.894L343.561 759.64L343.561 759.64L338.713 750.894ZM112.994 688.342L108.146 679.595L99.547 684.767L104.441 693.526L112.994 688.342ZM399.567 515.996L390.981 521.119C433.697 598.816 407.945 697.596 333.865 742.147L338.713 750.894L343.561 759.64C427.413 709.211 455.991 597.884 408.154 510.872L399.567 515.996ZM338.713 750.894L333.865 742.147C259.786 786.699 164.785 760.54 121.547 683.158L112.994 688.342L104.441 693.526C152.863 780.186 259.709 810.069 343.561 759.64L338.713 750.894ZM112.994 688.342L117.842 697.088L404.415 524.742L399.567 515.996L394.72 507.249L108.146 679.595L112.994 688.342Z" fill="black" mask="url(#path-11-inside-2_428_976)"/>
<rect x="635.611" y="501" width="121.072" height="121.072" transform="rotate(45 635.611 501)" fill="black"/>
<rect x="5" y="-5" width="268" height="108" transform="matrix(1 0 0 -1 497 518)" fill="white" stroke="black" stroke-width="10"/>
<rect x="5" y="-5" width="268" height="108" transform="matrix(1 0 0 -1 497 754)" fill="white" stroke="black" stroke-width="10"/>
<rect x="497" y="410" width="98" height="354" fill="black"/>
<rect width="278" height="118" transform="matrix(1 0 0 -1 830 528)" fill="black"/>
<rect x="925" y="514" width="88" height="245" fill="white" stroke="black" stroke-width="10"/>
<path d="M165.284 937.848C161.28 937.848 157.327 937.129 153.426 935.692C149.627 934.152 146.445 931.996 143.878 929.224L144.494 922.91V968.34H123.088V867.162H141.568L144.648 880.252L142.954 875.632C146.445 872.655 150.346 870.191 154.658 868.24C158.97 866.289 163.949 865.314 169.596 865.314C175.859 865.314 181.454 866.803 186.382 869.78C191.31 872.655 195.16 876.864 197.932 882.408C200.807 887.849 202.244 894.42 202.244 902.12C202.244 909.717 200.653 916.185 197.47 921.524C194.287 926.863 189.924 930.918 184.38 933.69C178.836 936.462 172.471 937.848 165.284 937.848ZM160.972 920.908C164.463 920.908 167.645 920.138 170.52 918.598C173.497 917.058 175.859 914.902 177.604 912.13C179.452 909.255 180.376 906.021 180.376 902.428C180.376 898.629 179.555 895.344 177.912 892.572C176.372 889.697 174.216 887.49 171.444 885.95C168.775 884.307 165.797 883.486 162.512 883.486C159.637 883.486 157.071 883.897 154.812 884.718C152.656 885.437 150.705 886.566 148.96 888.106C147.317 889.543 145.88 891.391 144.648 893.65V910.128C145.469 912.284 146.65 914.183 148.19 915.826C149.73 917.469 151.578 918.752 153.734 919.676C155.993 920.497 158.405 920.908 160.972 920.908ZM257.072 868.702L259.074 887.182L258.612 884.41C260.562 880.406 263.232 877.018 266.62 874.246C270.008 871.371 273.344 869.164 276.63 867.624C280.018 866.084 282.584 865.314 284.33 865.314L283.252 886.874C278.221 886.258 273.909 887.079 270.316 889.338C266.722 891.597 263.95 894.574 262 898.27C260.049 901.966 259.074 905.765 259.074 909.666V936H237.668V868.702H257.072ZM311.068 901.504C311.068 894.625 312.659 888.465 315.842 883.024C319.127 877.583 323.696 873.322 329.548 870.242C335.4 867.059 342.125 865.468 349.722 865.468C357.422 865.468 364.095 867.059 369.742 870.242C375.389 873.322 379.701 877.583 382.678 883.024C385.758 888.465 387.298 894.625 387.298 901.504C387.298 908.383 385.758 914.594 382.678 920.138C379.701 925.579 375.389 929.891 369.742 933.074C364.095 936.257 357.319 937.848 349.414 937.848C342.022 937.848 335.4 936.411 329.548 933.536C323.799 930.661 319.281 926.503 315.996 921.062C312.711 915.621 311.068 909.101 311.068 901.504ZM332.782 901.658C332.782 905.149 333.501 908.331 334.938 911.206C336.375 913.978 338.326 916.185 340.79 917.828C343.254 919.471 346.026 920.292 349.106 920.292C352.494 920.292 355.42 919.471 357.884 917.828C360.348 916.185 362.247 913.978 363.582 911.206C364.917 908.331 365.584 905.149 365.584 901.658C365.584 898.065 364.917 894.882 363.582 892.11C362.247 889.338 360.348 887.131 357.884 885.488C355.42 883.845 352.494 883.024 349.106 883.024C346.026 883.024 343.254 883.845 340.79 885.488C338.326 887.131 336.375 889.338 334.938 892.11C333.501 894.882 332.782 898.065 332.782 901.658ZM450.174 937.848C443.912 937.848 438.316 936.411 433.388 933.536C428.46 930.559 424.559 926.298 421.684 920.754C418.912 915.21 417.526 908.639 417.526 901.042C417.526 893.445 419.066 886.977 422.146 881.638C425.226 876.299 429.436 872.244 434.774 869.472C440.113 866.7 446.17 865.314 452.946 865.314C457.258 865.314 461.365 865.981 465.266 867.316C469.27 868.651 472.607 870.704 475.276 873.476V880.252V814.494H496.682V936H475.122V922.91L476.816 927.53C473.326 930.405 469.424 932.869 465.112 934.922C460.8 936.873 455.821 937.848 450.174 937.848ZM457.258 919.676C460.133 919.676 462.648 919.317 464.804 918.598C467.063 917.777 469.014 916.647 470.656 915.21C472.402 913.67 473.89 911.771 475.122 909.512V893.034C474.301 890.775 473.018 888.876 471.272 887.336C469.63 885.693 467.576 884.461 465.112 883.64C462.751 882.716 460.133 882.254 457.258 882.254C454.076 882.254 451.098 883.075 448.326 884.718C445.657 886.258 443.501 888.414 441.858 891.186C440.216 893.958 439.394 897.141 439.394 900.734C439.394 904.327 440.216 907.561 441.858 910.436C443.501 913.311 445.657 915.569 448.326 917.212C451.098 918.855 454.076 919.676 457.258 919.676ZM559.056 939.234C552.999 939.234 547.917 937.386 543.81 933.69C539.703 929.891 537.547 925.015 537.342 919.06V868.702H558.902V911.052C559.107 914.029 559.877 916.442 561.212 918.29C562.547 920.035 564.805 920.908 567.988 920.908C571.171 920.908 573.891 919.83 576.15 917.674C578.511 915.518 580.308 912.592 581.54 908.896C582.875 905.097 583.542 900.837 583.542 896.114V868.702H605.102V936H585.544L583.85 923.68L584.158 925.066C582.618 927.838 580.667 930.302 578.306 932.458C575.945 934.614 573.121 936.257 569.836 937.386C566.653 938.618 563.06 939.234 559.056 939.234ZM702.89 929.994C699.912 932.355 696.165 934.255 691.648 935.692C687.233 937.129 682.87 937.848 678.558 937.848C670.858 937.848 664.133 936.462 658.384 933.69C652.737 930.815 648.322 926.76 645.14 921.524C642.06 916.185 640.52 909.769 640.52 902.274C640.52 894.779 642.214 888.414 645.602 883.178C648.99 877.839 653.404 873.784 658.846 871.012C664.39 868.24 670.19 866.854 676.248 866.854C682.305 866.854 687.541 867.675 691.956 869.318C696.473 870.961 700.323 873.117 703.506 875.786L693.034 889.646C691.596 888.517 689.594 887.387 687.028 886.258C684.564 885.026 681.638 884.41 678.25 884.41C675.272 884.41 672.552 885.18 670.088 886.72C667.624 888.26 665.673 890.365 664.236 893.034C662.798 895.703 662.08 898.783 662.08 902.274C662.08 905.559 662.85 908.588 664.39 911.36C665.93 914.132 668.034 916.339 670.704 917.982C673.476 919.522 676.71 920.292 680.406 920.292C682.767 920.292 684.923 919.984 686.874 919.368C688.927 918.649 690.672 917.674 692.11 916.442L702.89 929.994ZM744.241 839.134H765.801V868.394H782.125V885.18H765.801V936H744.241V885.18H733.769V868.394H744.241V839.134ZM817.014 868.702H838.574V936H817.014V868.702ZM816.552 844.832C816.552 841.649 817.784 839.031 820.248 836.978C822.815 834.925 825.536 833.898 828.41 833.898C831.285 833.898 833.903 834.925 836.264 836.978C838.728 839.031 839.96 841.649 839.96 844.832C839.96 848.015 838.728 850.633 836.264 852.686C833.903 854.637 831.285 855.612 828.41 855.612C825.536 855.612 822.815 854.637 820.248 852.686C817.784 850.633 816.552 848.015 816.552 844.832ZM874.022 901.504C874.022 894.625 875.613 888.465 878.796 883.024C882.081 877.583 886.65 873.322 892.502 870.242C898.354 867.059 905.079 865.468 912.676 865.468C920.376 865.468 927.049 867.059 932.696 870.242C938.343 873.322 942.655 877.583 945.632 883.024C948.712 888.465 950.252 894.625 950.252 901.504C950.252 908.383 948.712 914.594 945.632 920.138C942.655 925.579 938.343 929.891 932.696 933.074C927.049 936.257 920.273 937.848 912.368 937.848C904.976 937.848 898.354 936.411 892.502 933.536C886.753 930.661 882.235 926.503 878.95 921.062C875.665 915.621 874.022 909.101 874.022 901.504ZM895.736 901.658C895.736 905.149 896.455 908.331 897.892 911.206C899.329 913.978 901.28 916.185 903.744 917.828C906.208 919.471 908.98 920.292 912.06 920.292C915.448 920.292 918.374 919.471 920.838 917.828C923.302 916.185 925.201 913.978 926.536 911.206C927.871 908.331 928.538 905.149 928.538 901.658C928.538 898.065 927.871 894.882 926.536 892.11C925.201 889.338 923.302 887.131 920.838 885.488C918.374 883.845 915.448 883.024 912.06 883.024C908.98 883.024 906.208 883.845 903.744 885.488C901.28 887.131 899.329 889.338 897.892 892.11C896.455 894.882 895.736 898.065 895.736 901.658ZM1005.27 868.702L1006.97 880.714L1006.66 879.636C1009.02 875.427 1012.36 872.039 1016.67 869.472C1020.98 866.803 1026.27 865.468 1032.53 865.468C1038.9 865.468 1044.19 867.367 1048.39 871.166C1052.71 874.862 1054.91 879.687 1055.02 885.642V936H1033.46V893.65C1033.35 890.673 1032.53 888.311 1030.99 886.566C1029.56 884.718 1027.09 883.794 1023.6 883.794C1020.32 883.794 1017.44 884.872 1014.98 887.028C1012.51 889.184 1010.61 892.11 1009.28 895.806C1007.94 899.502 1007.28 903.763 1007.28 908.588V936H985.717V868.702H1005.27ZM1117.5 937.386C1111.96 937.386 1106.77 936.411 1101.95 934.46C1097.23 932.509 1093.22 929.789 1089.94 926.298L1098.87 914.44C1102.15 917.417 1105.18 919.573 1107.95 920.908C1110.83 922.14 1113.4 922.756 1115.65 922.756C1117.4 922.756 1118.94 922.602 1120.27 922.294C1121.71 921.883 1122.84 921.319 1123.66 920.6C1124.48 919.779 1124.89 918.752 1124.89 917.52C1124.89 915.775 1124.18 914.389 1122.74 913.362C1121.4 912.335 1119.66 911.514 1117.5 910.898C1115.35 910.179 1113.04 909.461 1110.57 908.742C1104.41 906.791 1099.95 903.968 1097.17 900.272C1094.5 896.473 1093.17 892.367 1093.17 887.952C1093.17 884.564 1094.04 881.176 1095.79 877.788C1097.64 874.297 1100.51 871.423 1104.41 869.164C1108.42 866.803 1113.55 865.622 1119.81 865.622C1125.46 865.622 1130.23 866.187 1134.13 867.316C1138.04 868.445 1141.73 870.293 1145.22 872.86L1137.06 885.488C1135.11 883.948 1132.9 882.665 1130.44 881.638C1128.08 880.509 1125.87 879.893 1123.82 879.79C1121.97 879.687 1120.38 879.893 1119.04 880.406C1117.81 880.919 1116.83 881.587 1116.12 882.408C1115.4 883.229 1115.04 884.102 1115.04 885.026C1114.94 886.977 1115.65 888.517 1117.19 889.646C1118.84 890.775 1120.89 891.648 1123.35 892.264C1125.82 892.88 1128.23 893.599 1130.59 894.42C1133.88 895.447 1136.7 896.833 1139.06 898.578C1141.42 900.323 1143.22 902.428 1144.45 904.892C1145.79 907.253 1146.45 910.128 1146.45 913.516C1146.45 917.623 1145.38 921.524 1143.22 925.22C1141.17 928.813 1137.98 931.739 1133.67 933.998C1129.46 936.257 1124.07 937.386 1117.5 937.386Z" fill="black"/>
</svg>
